<svg xmlns="http://www.w3.org/2000/svg" xml:space="preserve" width="500" height="500" version="1.0" style="shape-rendering:geometricPrecision;text-rendering:geometricPrecision;image-rendering:optimizeQuality;fill-rule:evenodd;clip-rule:evenodd" viewBox="0 0 500 500"><defs><radialGradient id="a" gradientUnits="userSpaceOnUse" gradientTransform="rotate(60 1256.284 -268.053) scale(1.85184)" cx="772" cy="211" r="112.86" fx="772" fy="211"><stop offset="0" style="stop-opacity:1;stop-color:#fcfbfc"/><stop offset="1" style="stop-opacity:1;stop-color:#e1d5e7"/></radialGradient><radialGradient id="b" gradientUnits="userSpaceOnUse" gradientTransform="matrix(-1.3941 -.37355 -.41797 1.55989 507 -21)" cx="183.55" cy="160.42" r="154.81" fx="183.55" fy="160.42"><stop offset="0" style="stop-opacity:1;stop-color:#faebaf"/><stop offset="1" style="stop-opacity:1;stop-color:#ffe164"/></radialGradient></defs><circle cx="852" cy="301" r="250" style="fill:url(#a)"/><path d="M185.22 491.41C110.74 471.46 51.79 419.34 21.6 351.74c-4.47-10.01 6.02-20.06 15.8-15.34 111.18 53.71 242.84-7.29 274.53-125.56 18.25-68.12-1.43-140.54-51.67-190.15-7.74-7.65-1.73-20.89 9.17-20.02 15.23 1.22 30.43 3.82 45.21 7.78 133.29 35.72 212.53 172.72 176.77 306.19-35.71 133.29-172.72 212.54-306.18 176.77h-.01z" style="fill:url(#b)"/></svg>